<?xml version="1.0" encoding="UTF-8" standalone="no"?>
<!-- Created with Inkscape (http://www.inkscape.org/) -->

<svg
   xmlns:dc="http://purl.org/dc/elements/1.1/"
   xmlns:cc="http://creativecommons.org/ns#"
   xmlns:rdf="http://www.w3.org/1999/02/22-rdf-syntax-ns#"
   xmlns:svg="http://www.w3.org/2000/svg"
   xmlns="http://www.w3.org/2000/svg"
   xmlns:xlink="http://www.w3.org/1999/xlink"
   xmlns:sodipodi="http://sodipodi.sourceforge.net/DTD/sodipodi-0.dtd"
   xmlns:inkscape="http://www.inkscape.org/namespaces/inkscape"
   width="128"
   height="128"
   id="svg2985"
   version="1.1"
   inkscape:version="0.48.4 r9939"
   sodipodi:docname="inkscape.svg"
   style="enable-background:new">
  <defs
     id="defs2987">
    <linearGradient
       id="linearGradient4266"
       inkscape:collect="always">
      <stop
         id="stop4268"
         offset="0"
         style="stop-color:#ffffff;stop-opacity:1" />
      <stop
         id="stop4270"
         offset="1"
         style="stop-color:#000000;stop-opacity:0;" />
    </linearGradient>
    <linearGradient
       inkscape:collect="always"
       id="linearGradient4254">
      <stop
         style="stop-color:#000000;stop-opacity:1;"
         offset="0"
         id="stop4256" />
      <stop
         style="stop-color:#000000;stop-opacity:0;"
         offset="1"
         id="stop4258" />
    </linearGradient>
    <linearGradient
       id="linearGradient3800">
      <stop
         style="stop-color:#ffeeaa;stop-opacity:0.52173913;"
         offset="0"
         id="stop3802" />
      <stop
         id="stop3810"
         offset="0.36702433"
         style="stop-color:#ffdd55;stop-opacity:0.53043479;" />
      <stop
         id="stop3808"
         offset="0.9542169"
         style="stop-color:#ffd42a;stop-opacity:0.49565217;" />
      <stop
         style="stop-color:#c8ab37;stop-opacity:1"
         offset="1"
         id="stop3804" />
    </linearGradient>
    <linearGradient
       inkscape:collect="always"
       id="linearGradient3012">
      <stop
         id="stop3016"
         offset="0"
         style="stop-color:#ffcc00;stop-opacity:1" />
      <stop
         id="stop3014"
         offset="1"
         style="stop-color:#d45500;stop-opacity:1" />
    </linearGradient>
    <linearGradient
       inkscape:collect="always"
       xlink:href="#linearGradient3800"
       id="linearGradient3806"
       x1="7.1048388"
       y1="989.8783"
       x2="7.194653"
       y2="1053.0016"
       gradientUnits="userSpaceOnUse"
       gradientTransform="matrix(0.85474262,0,0,0.85474226,4.648237,148.21548)" />
    <linearGradient
       id="linearGradient3688-166-749-4-0-3-8-2-5">
      <stop
         id="stop2883-4-0-1-8-4-4"
         style="stop-color:#181818;stop-opacity:1"
         offset="0" />
      <stop
         id="stop2885-9-2-9-6-0-4"
         style="stop-color:#181818;stop-opacity:0"
         offset="1" />
    </linearGradient>
    <radialGradient
       cx="4.9929786"
       cy="43.5"
       r="2.5"
       fx="4.9929786"
       fy="43.5"
       id="radialGradient3339-1-4-8-7"
       xlink:href="#linearGradient3688-464-309-9-2-4-2-3-5"
       gradientUnits="userSpaceOnUse"
       gradientTransform="matrix(3.1638751,0,0,0.99999998,-25.808242,-1091.3622)" />
    <linearGradient
       id="linearGradient3688-464-309-9-2-4-2-3-5">
      <stop
         id="stop2889-7-9-6-9-5-3"
         style="stop-color:#181818;stop-opacity:1"
         offset="0" />
      <stop
         id="stop2891-6-6-1-7-6-4"
         style="stop-color:#181818;stop-opacity:0"
         offset="1" />
    </linearGradient>
    <linearGradient
       gradientTransform="matrix(1.5789502,0,0,0.7142857,-5.7895045,1016.7907)"
       x1="25.058096"
       y1="47.027729"
       x2="25.058096"
       y2="39.999443"
       id="linearGradient6394-1-2"
       xlink:href="#linearGradient3702-501-757-8-4-1-1-3-2"
       gradientUnits="userSpaceOnUse" />
    <linearGradient
       id="linearGradient3702-501-757-8-4-1-1-3-2">
      <stop
         id="stop2895-8-9-9-1-4-6"
         style="stop-color:#181818;stop-opacity:0"
         offset="0" />
      <stop
         id="stop2897-7-8-7-7-6-7"
         style="stop-color:#181818;stop-opacity:1"
         offset="0.5" />
      <stop
         id="stop2899-4-5-1-5-7-6"
         style="stop-color:#181818;stop-opacity:0"
         offset="1" />
    </linearGradient>
    <radialGradient
       r="2.5"
       fy="43.5"
       fx="4.9929786"
       cy="43.5"
       cx="4.9929786"
       gradientTransform="matrix(3.1638751,0,0,0.99999998,38.402359,1004.3622)"
       gradientUnits="userSpaceOnUse"
       id="radialGradient3646"
       xlink:href="#linearGradient3688-166-749-4-0-3-8-2-5"
       inkscape:collect="always" />
    <linearGradient
       inkscape:collect="always"
       xlink:href="#linearGradient4254"
       id="linearGradient4260"
       x1="31.259146"
       y1="16.500687"
       x2="31.539474"
       y2="58.89035"
       gradientUnits="userSpaceOnUse"
       gradientTransform="translate(0.53033008,-0.35355339)" />
    <linearGradient
       inkscape:collect="always"
       xlink:href="#linearGradient4266"
       id="linearGradient4264"
       x1="31.819805"
       y1="10.259885"
       x2="31.819805"
       y2="26.434952"
       gradientUnits="userSpaceOnUse"
       gradientTransform="translate(0.53033008,-0.35355339)" />
    <radialGradient
       inkscape:collect="always"
       xlink:href="#linearGradient3012"
       id="radialGradient3877"
       cx="30.973282"
       cy="978.30212"
       fx="30.973282"
       fy="978.30212"
       r="27.5625"
       gradientUnits="userSpaceOnUse"
       gradientTransform="matrix(-3.9854649,0.04316537,-0.04770781,-4.4048616,202.76202,5291.6517)" />
    <radialGradient
       inkscape:collect="always"
       xlink:href="#linearGradient3688-166-749-4-0-3-8-2-5"
       id="radialGradient3067"
       gradientUnits="userSpaceOnUse"
       gradientTransform="matrix(3.1638751,0,0,0.99999998,38.402359,1004.3622)"
       cx="4.9929786"
       cy="43.5"
       fx="4.9929786"
       fy="43.5"
       r="2.5" />
    <radialGradient
       inkscape:collect="always"
       xlink:href="#linearGradient3688-464-309-9-2-4-2-3-5"
       id="radialGradient3069"
       gradientUnits="userSpaceOnUse"
       gradientTransform="matrix(3.1638751,0,0,0.99999998,-25.808242,-1091.3622)"
       cx="4.9929786"
       cy="43.5"
       fx="4.9929786"
       fy="43.5"
       r="2.5" />
    <linearGradient
       inkscape:collect="always"
       xlink:href="#linearGradient3702-501-757-8-4-1-1-3-2"
       id="linearGradient3071"
       gradientUnits="userSpaceOnUse"
       gradientTransform="matrix(1.5789502,0,0,0.7142857,-5.7895045,1016.7907)"
       x1="25.058096"
       y1="47.027729"
       x2="25.058096"
       y2="39.999443" />
    <radialGradient
       inkscape:collect="always"
       xlink:href="#linearGradient3012"
       id="radialGradient3073"
       gradientUnits="userSpaceOnUse"
       gradientTransform="matrix(-3.9854649,0.04316537,-0.04770781,-4.4048616,202.76202,5291.6517)"
       cx="30.973282"
       cy="978.30212"
       fx="30.973282"
       fy="978.30212"
       r="27.5625" />
    <linearGradient
       inkscape:collect="always"
       xlink:href="#linearGradient3800"
       id="linearGradient3075"
       gradientUnits="userSpaceOnUse"
       gradientTransform="matrix(0.85474262,0,0,0.85474226,4.648237,148.21548)"
       x1="7.1048388"
       y1="989.8783"
       x2="7.194653"
       y2="1053.0016" />
    <linearGradient
       inkscape:collect="always"
       xlink:href="#linearGradient4254"
       id="linearGradient3077"
       gradientUnits="userSpaceOnUse"
       gradientTransform="translate(0.53033008,-0.35355339)"
       x1="31.259146"
       y1="16.500687"
       x2="31.539474"
       y2="58.89035" />
    <linearGradient
       inkscape:collect="always"
       xlink:href="#linearGradient4266"
       id="linearGradient3079"
       gradientUnits="userSpaceOnUse"
       gradientTransform="translate(0.53033008,-0.35355339)"
       x1="31.819805"
       y1="10.259885"
       x2="31.819805"
       y2="26.434952" />
  </defs>
  <sodipodi:namedview
     id="base"
     pagecolor="#ffffff"
     bordercolor="#666666"
     borderopacity="1.0"
     inkscape:pageopacity="0.0"
     inkscape:pageshadow="2"
     inkscape:zoom="2.8284271"
     inkscape:cx="60.206576"
     inkscape:cy="33.316559"
     inkscape:document-units="px"
     inkscape:current-layer="layer2"
     showgrid="false"
     inkscape:snap-bbox="false"
     inkscape:window-width="1301"
     inkscape:window-height="744"
     inkscape:window-x="65"
     inkscape:window-y="24"
     inkscape:window-maximized="1"
     showguides="true"
     inkscape:guide-bbox="true"
     inkscape:snap-global="true"
     inkscape:object-nodes="true">
    <inkscape:grid
       type="xygrid"
       id="grid2993"
       empspacing="5"
       visible="true"
       enabled="true"
       snapvisiblegridlinesonly="true"
       spacingx="0.5px"
       spacingy="0.5px"
       color="#ff00ff"
       opacity="0.1254902"
       empcolor="#ff00ff"
       empopacity="0.25098039" />
    <inkscape:grid
       type="xygrid"
       id="grid2995"
       empspacing="5"
       visible="true"
       enabled="true"
       snapvisiblegridlinesonly="true" />
  </sodipodi:namedview>
  <metadata
     id="metadata2990">
    <rdf:RDF>
      <cc:Work
         rdf:about="">
        <dc:format>image/svg+xml</dc:format>
        <dc:type
           rdf:resource="http://purl.org/dc/dcmitype/StillImage" />
        <dc:title />
      </cc:Work>
    </rdf:RDF>
  </metadata>
  <g
     inkscape:label="tile"
     inkscape:groupmode="layer"
     id="layer1"
     transform="translate(0,-988.36218)"
     style="display:inline" />
  <g
     inkscape:groupmode="layer"
     id="layer5"
     inkscape:label="Layer#1"
     style="opacity:0.9" />
  <g
     inkscape:groupmode="layer"
     id="layer2"
     inkscape:label="mountain"
     style="display:inline">
    <g
       id="g3045"
       transform="matrix(2.033326,0,0,2.033326,-0.64832914,-0.15861058)">
      <rect
         style="opacity:0.6;fill:url(#radialGradient3067);fill-opacity:1;stroke:none;display:inline"
         id="rect2801-5-5-7-9-0"
         y="1045.3622"
         x="54.210602"
         height="5"
         width="7.8947511"
         transform="translate(0,-988.36218)" />
      <rect
         style="opacity:0.6;fill:url(#radialGradient3069);fill-opacity:1;stroke:none;display:inline"
         id="rect3696-3-0-3-7-8"
         transform="matrix(-1,0,0,-1,0,-988.36218)"
         y="-1050.3622"
         x="-10"
         height="5"
         width="7.8947511" />
      <rect
         style="opacity:0.6;fill:url(#linearGradient3071);fill-opacity:1;stroke:none;display:inline"
         id="rect3700-5-6-8-4-1"
         y="1045.3622"
         x="10"
         height="5.0000005"
         width="44.210606"
         transform="translate(0,-988.36218)" />
      <rect
         ry="3.0624974"
         rx="3.0624974"
         style="fill:url(#radialGradient3073);fill-opacity:1;stroke:none;display:inline"
         id="rect2999"
         width="55.125"
         height="55.125"
         x="4.4375"
         y="992.79968"
         transform="translate(0,-988.36218)" />
      <rect
         ry="3.001157"
         rx="3.001157"
         y="992.86102"
         x="4.4988866"
         height="55.002243"
         width="55.002228"
         id="rect2997"
         style="opacity:0.54128436;fill:none;stroke:#552200;stroke-width:0.99777293;stroke-miterlimit:4;stroke-dasharray:none;display:inline"
         transform="translate(0,-988.36218)" />
      <rect
         style="fill:none;stroke:url(#linearGradient3075);stroke-width:0.99260414;stroke-miterlimit:4;stroke-dasharray:none;display:inline"
         id="rect3790"
         width="53.007393"
         height="53.007366"
         x="5.4963021"
         y="993.85852"
         rx="2.0036595"
         ry="2.0036595"
         transform="translate(0,-988.36218)" />
      <path
         sodipodi:nodetypes="ccccczcczzzzzcccccccc"
         inkscape:connector-curvature="0"
         id="path4091-1"
         d="M 28.820781,11.78343 10.891094,29.713116 c -2.7890621,3.1875 -1.1953116,4.382812 0,4.78125 l 6.375,2.390625 c 1.195312,0.398437 2.390625,1.59375 0.796875,2.390625 0,0 -2.789063,0.796875 -2.390625,1.59375 0.398437,0.796875 9.164062,4.382812 9.164062,4.382812 0.796875,0.398438 1.195313,1.195313 0.398438,1.992188 0,0 -1.59375,1.992187 -1.195313,2.789062 0.398438,0.796875 3.239744,1.073562 4.382813,1.992188 1.143069,0.918626 0.554107,2.613816 2.390625,3.1875 1.836518,0.573684 6.773437,-1.59375 7.171875,-2.390625 0.398437,-0.796875 -1.59375,-1.59375 -1.195313,-2.789063 0.398438,-1.195312 6.773438,-3.984375 6.773438,-3.984375 1.195312,-0.398437 1.23918,-1.443546 0,-2.390625 l -1.992188,-1.195312 c -0.894914,-0.595172 -1.283319,-1.9795 0.398438,-2.390625 l 10.359375,-4.78125 c 2.390625,-1.195313 2.390625,-3.1875 0,-5.578125 L 35.195781,11.78343 c -1.992187,-1.9921894 -4.382812,-1.9921894 -6.375,0 z"
         style="opacity:0.24791667;fill:none;stroke:#000000;stroke-width:1px;stroke-linecap:butt;stroke-linejoin:miter;stroke-opacity:1;display:inline" />
      <path
         style="opacity:0.11041667;fill:none;stroke:#000000;stroke-width:3.29999995;stroke-linecap:butt;stroke-linejoin:miter;stroke-miterlimit:4;stroke-opacity:1;stroke-dasharray:none;display:inline"
         d="M 28.875156,11.795876 10.89542,29.874913 c -2.7968474,3.21405 -1.1986481,4.419319 0,4.821077 l 6.392795,2.410538 c 1.198649,0.401756 2.397299,1.607025 0.799099,2.410539 0,0 -2.796848,0.803512 -2.397297,1.607025 0.399548,0.803512 9.189642,4.419319 9.189642,4.419319 0.7991,0.401758 1.19865,1.20527 0.39955,2.008783 0,0 -1.598199,2.008782 -1.198649,2.812294 0.39955,0.803513 3.248787,1.082505 4.395047,2.008783 1.146259,0.926278 0.555653,2.635588 2.397297,3.214051 1.841646,0.578462 6.792344,-1.607026 7.191895,-2.410539 0.39955,-0.803512 -1.598198,-1.607025 -1.19865,-2.812295 0.399551,-1.205269 6.792346,-4.017564 6.792346,-4.017564 1.198648,-0.401755 1.242639,-1.45557 0,-2.410538 l -1.99775,-1.205269 c -0.89741,-0.600129 -1.2869,-1.995989 0.399551,-2.410538 l 10.388292,-4.821077 c 2.397299,-1.20527 2.397299,-3.214051 0,-5.624589 L 35.267951,11.795876 c -1.997748,-2.0087834 -4.395047,-2.0087834 -6.392795,0 z"
         id="path4002"
         inkscape:connector-curvature="0"
         sodipodi:nodetypes="ccccczcczzzzzcccccccc" />
      <path
         style="fill:url(#linearGradient3077);fill-opacity:1;stroke:none;display:inline"
         d="M 28.776213,10.782925 10.846526,28.712612 c -2.789062,3.1875 -1.1953115,4.382812 0,4.78125 l 6.375,2.390625 c 1.195312,0.398437 2.390625,1.59375 0.796875,2.390625 0,0 -2.789063,0.796875 -2.390625,1.59375 0.398437,0.796875 9.164062,4.382812 9.164062,4.382812 0.796875,0.398438 1.195313,1.195313 0.398438,1.992188 0,0 -1.59375,1.992187 -1.195313,2.789062 0.398438,0.796875 3.239744,1.073562 4.382813,1.992188 1.143069,0.918626 0.554107,2.613816 2.390625,3.1875 1.836518,0.573684 6.773437,-1.59375 7.171875,-2.390625 0.398437,-0.796875 -1.59375,-1.59375 -1.195313,-2.789063 0.398438,-1.195312 6.773438,-3.984375 6.773438,-3.984375 1.195312,-0.398437 1.23918,-1.443546 0,-2.390625 l -1.992188,-1.195312 c -0.894914,-0.595172 -1.283319,-1.9795 0.398438,-2.390625 l 10.359375,-4.78125 c 2.390625,-1.195313 2.390625,-3.1875 0,-5.578125 L 35.151213,10.782925 c -1.992187,-1.9921887 -4.382812,-1.9921887 -6.375,0 z"
         id="path4236"
         inkscape:connector-curvature="0"
         sodipodi:nodetypes="ccccczcczzzzzcccccccc" />
      <path
         style="fill:url(#linearGradient3079);fill-opacity:1;stroke:none"
         d="m 28.03033,15.146447 2,-2.09375 c 1,-1 3,-1 4,0 l 7.6875,7.9375 -3.8125,-1.53125 -0.25,4.5 -2.53125,-3 -3.59375,4.09375 -2.3125,-6.4375 -2.71875,5.15625 -6.59375,0 z"
         id="path4262"
         inkscape:connector-curvature="0"
         sodipodi:nodetypes="cccccccccccc" />
      <path
         sodipodi:nodetypes="ccccczcczzzzzcccccccc"
         inkscape:connector-curvature="0"
         id="path4091"
         d="M 28.776213,10.782925 10.846526,28.712612 c -2.789062,3.1875 -1.1953115,4.382812 0,4.78125 l 6.375,2.390625 c 1.195312,0.398437 2.390625,1.59375 0.796875,2.390625 0,0 -2.789063,0.796875 -2.390625,1.59375 0.398437,0.796875 9.164062,4.382812 9.164062,4.382812 0.796875,0.398438 1.195313,1.195313 0.398438,1.992188 0,0 -1.59375,1.992187 -1.195313,2.789062 0.398438,0.796875 3.239744,1.073562 4.382813,1.992188 1.143069,0.918626 0.554107,2.613816 2.390625,3.1875 1.836518,0.573684 6.773437,-1.59375 7.171875,-2.390625 0.398437,-0.796875 -1.59375,-1.59375 -1.195313,-2.789063 0.398438,-1.195312 6.773438,-3.984375 6.773438,-3.984375 1.195312,-0.398437 1.23918,-1.443546 0,-2.390625 l -1.992188,-1.195312 c -0.894914,-0.595172 -1.283319,-1.9795 0.398438,-2.390625 l 10.359375,-4.78125 c 2.390625,-1.195313 2.390625,-3.1875 0,-5.578125 L 35.151213,10.782925 c -1.992187,-1.9921887 -4.382812,-1.9921887 -6.375,0 z"
         style="fill:none;stroke:#000000;stroke-width:1px;stroke-linecap:butt;stroke-linejoin:miter;stroke-opacity:1;display:inline" />
      <path
         sodipodi:nodetypes="cccccccccccc"
         inkscape:connector-curvature="0"
         id="path4130"
         d="m 28.03033,15.146447 2,-2.09375 c 1,-1 3,-1 4,0 l 7.6875,7.9375 -3.8125,-1.53125 -0.25,4.5 -2.53125,-3 -3.59375,4.09375 -2.3125,-6.4375 -2.71875,5.15625 -6.59375,0 z"
         style="fill:none;stroke:#ffffff;stroke-width:1;stroke-linecap:butt;stroke-linejoin:miter;stroke-miterlimit:10;stroke-opacity:1;stroke-dasharray:none" />
      <rect
         transform="matrix(0.70710678,0.70710678,-0.70710678,0.70710678,0,0)"
         y="10.221256"
         x="26.939714"
         height="2"
         width="2"
         id="rect4138"
         style="fill:#ffffff;stroke:#ffffff;stroke-width:1;stroke-miterlimit:10;stroke-dasharray:none" />
      <rect
         style="fill:#ffffff;stroke:#ffffff;stroke-width:1;stroke-miterlimit:10;stroke-dasharray:none"
         id="rect4140"
         width="2"
         height="2"
         x="31.347534"
         y="14.526824"
         transform="matrix(0.70710678,0.70710678,-0.70710678,0.70710678,0,0)" />
      <rect
         transform="matrix(0.70710678,0.70710678,-0.70710678,0.70710678,0,0)"
         y="-17.598177"
         x="55.472534"
         height="2"
         width="2"
         id="rect4142"
         style="fill:#ffffff;stroke:#ffffff;stroke-width:1;stroke-miterlimit:10;stroke-dasharray:none" />
      <rect
         style="fill:#ffffff;stroke:#ffffff;stroke-width:1;stroke-miterlimit:10;stroke-dasharray:none"
         id="rect4144"
         width="2"
         height="2"
         x="59.785034"
         y="-12.910677"
         transform="matrix(0.70710678,0.70710678,-0.70710678,0.70710678,0,0)" />
      <rect
         transform="matrix(0.70710678,0.70710678,-0.70710678,0.70710678,0,0)"
         y="-4.035677"
         x="56.660034"
         height="2"
         width="2"
         id="rect4146"
         style="fill:#ffffff;stroke:#ffffff;stroke-width:1;stroke-miterlimit:10;stroke-dasharray:none" />
      <rect
         transform="matrix(0.70710678,0.70710678,-0.70710678,0.70710678,0,0)"
         y="3.339323"
         x="60.535034"
         height="2"
         width="2"
         id="rect4150"
         style="fill:#ffffff;stroke:#ffffff;stroke-width:1;stroke-miterlimit:10;stroke-dasharray:none" />
      <rect
         style="fill:#ffffff;stroke:#ffffff;stroke-width:1;stroke-miterlimit:10;stroke-dasharray:none"
         id="rect4156"
         width="2"
         height="2"
         x="43.785034"
         y="14.464323"
         transform="matrix(0.70710678,0.70710678,-0.70710678,0.70710678,0,0)" />
      <rect
         style="fill:#ffffff;stroke:#ffffff;stroke-width:1;stroke-miterlimit:10;stroke-dasharray:none"
         id="rect4160"
         width="2"
         height="2"
         x="55.597534"
         y="15.276823"
         transform="matrix(0.70710678,0.70710678,-0.70710678,0.70710678,0,0)" />
    </g>
  </g>
</svg>
